# xmcd
#
# Track frame offsets: 
#        150
#        23022
#        43302
#        63550
#        82787
#        100077
#        119402
#        138830
#        157680
#        178505
#        198607
#        218135
#        237970
#        255912
#
# Disc length: 3682 seconds
#
# Revision: 12
# Processed by: cddbd v1.5.2PL0 Copyright (c) Steve Scherf et al.
# Submitted via: ExactAudioCopy v1.0b3
#
DISCID=b10e600e
DTITLE=黃乙玲 - 山盟海誓精選重唱+新歌
DYEAR=2000
DGENRE=Pop
TTITLE0=講什麼山盟海誓
TTITLE1=最後火車站
TTITLE2=愛情的酒攏袂退
TTITLE3=燒滾滾冷冰冰
TTITLE4=可恨的愛人
TTITLE5=啞吧情歌
TTITLE6=感謝無情人
TTITLE7=無字的情批
TTITLE8=愛到才知痛
TTITLE9=愛你無條件
TTITLE10=傷心第四台
TTITLE11=台北Sayonara
TTITLE12=Radio的點歌心情
TTITLE13=最後火車站(KALA)
EXTD=YEAR: 2000
EXTT0=
EXTT1=
EXTT2=
EXTT3=
EXTT4=
EXTT5=
EXTT6=
EXTT7=
EXTT8=
EXTT9=
EXTT10=
EXTT11=
EXTT12=
EXTT13=
PLAYORDER=
